<svg width="340" height="321" viewBox="0 0 340 321" fill="none" xmlns="http://www.w3.org/2000/svg">
<path d="M0 60C0 26.8629 26.8629 0 60 0H266C299.137 0 326 26.8629 326 60V261C326 294.137 299.137 321 266 321H60C26.8629 321 0 294.137 0 261V60Z" fill="#F2C53D"/>
<path fill-rule="evenodd" clip-rule="evenodd" d="M266 5H60C29.6243 5 5 29.6243 5 60V261C5 291.376 29.6243 316 60 316H266C296.376 316 321 291.376 321 261V60C321 29.6243 296.376 5 266 5ZM60 0C26.8629 0 0 26.8629 0 60V261C0 294.137 26.8629 321 60 321H266C299.137 321 326 294.137 326 261V60C326 26.8629 299.137 0 266 0H60Z" fill="#0D0D0D"/>
<path d="M120.954 116.302C144.296 93.3735 181.704 93.3735 205.046 116.302L303.431 212.947C341.749 250.587 315.097 315.75 261.385 315.75H64.6156C10.9027 315.75 -15.7488 250.587 22.5692 212.947L120.954 116.302Z" fill="#F2A03D"/>
<path d="M205.674 69.5806C191.849 64.4102 162.512 80.8196 138.234 102.288H120.249C108.325 102.288 96.8893 107.025 88.4577 115.457C80.026 123.889 75.2892 135.324 75.2892 147.248V169.728C75.2892 181.652 80.026 193.089 88.4577 201.521C96.8893 209.952 108.325 214.688 120.249 214.688H138.234C161.95 236.494 191.287 252.567 205.674 247.509C229.278 238.742 233.211 191.309 233.211 158.488C233.211 125.667 229.278 78.3478 205.674 69.5806Z" fill="#9CD9D3" stroke="black" stroke-width="5" stroke-linecap="round" stroke-linejoin="round"/>
<line x1="85.058" y1="253.426" x2="252.058" y2="47.4257" stroke="black" stroke-width="5"/>
</svg>
