<svg width="326" height="321" viewBox="0 0 326 321" fill="none" xmlns="http://www.w3.org/2000/svg">
<path d="M0 60C0 26.8629 26.8629 0 60 0H266C299.137 0 326 26.8629 326 60V261C326 294.137 299.137 321 266 321H60C26.8629 321 0 294.137 0 261V60Z" fill="#F2C53D"/>
<path fill-rule="evenodd" clip-rule="evenodd" d="M266 5H60C29.6243 5 5 29.6243 5 60V261C5 291.376 29.6243 316 60 316H266C296.376 316 321 291.376 321 261V60C321 29.6243 296.376 5 266 5ZM60 0C26.8629 0 0 26.8629 0 60V261C0 294.137 26.8629 321 60 321H266C299.137 321 326 294.137 326 261V60C326 26.8629 299.137 0 266 0H60Z" fill="#0D0D0D"/>
<path d="M120.954 116.302C144.296 93.3735 181.704 93.3735 205.046 116.302L303.431 212.947C341.749 250.587 315.097 315.75 261.385 315.75H64.6156C10.9027 315.75 -15.7488 250.587 22.5692 212.947L120.954 116.302Z" fill="#F2A03D"/>
<path d="M89.0328 78.6943C89.1283 58.7904 110.639 46.3711 127.924 56.2403L262.218 132.918C279.647 142.869 279.707 167.978 262.326 178.013L127.291 255.976C109.909 266.011 88.1946 253.405 88.2909 233.334L89.0328 78.6943Z" fill="#9CD9D3"/>
<path fill-rule="evenodd" clip-rule="evenodd" d="M259.738 137.26L125.445 60.5824C111.484 52.6111 94.1099 62.6421 94.0328 78.7183L93.2908 233.358C93.213 249.569 110.752 259.751 124.791 251.646L259.826 173.683C273.865 165.578 273.816 145.298 259.738 137.26ZM127.924 56.2403C110.639 46.3711 89.1283 58.7904 89.0328 78.6943L88.2909 233.334C88.1946 253.405 109.909 266.011 127.291 255.976L262.326 178.013C279.707 167.978 279.647 142.869 262.218 132.918L127.924 56.2403Z" fill="#0D0D0D"/>
</svg>
