<svg width="326" height="321" viewBox="0 0 326 321" fill="none" xmlns="http://www.w3.org/2000/svg">
<path d="M266 2.5H60C28.2436 2.5 2.5 28.2436 2.5 60V261C2.5 292.756 28.2436 318.5 60 318.5H266C297.756 318.5 323.5 292.756 323.5 261V60C323.5 28.2436 297.756 2.5 266 2.5Z" fill="#F2C53D"/>
<path fill-rule="evenodd" clip-rule="evenodd" d="M60 5C29.6243 5 5 29.6243 5 60V261C5 291.376 29.6243 316 60 316H266C296.376 316 321 291.376 321 261V60C321 29.6243 296.376 5 266 5H60ZM0 60C0 26.8629 26.8629 0 60 0H266C299.137 0 326 26.8629 326 60V261C326 294.137 299.137 321 266 321H60C26.8629 321 0 294.137 0 261V60Z" fill="#0D0D0D"/>
<path d="M120.954 116.302C144.296 93.3735 181.704 93.3735 205.046 116.302L303.431 212.947C341.749 250.587 315.097 315.75 261.385 315.75H64.616C10.903 315.75 -15.749 250.587 22.569 212.947L120.954 116.302Z" fill="#F2A03D"/>
<path d="M163 36.5H93C83.335 36.5 75.5 44.335 75.5 54V199C75.5 208.665 83.335 216.5 93 216.5H163C172.665 216.5 180.5 208.665 180.5 199V54C180.5 44.335 172.665 36.5 163 36.5Z" fill="#9CD9D3"/>
<path fill-rule="evenodd" clip-rule="evenodd" d="M93 39C84.7157 39 78 45.7157 78 54V199C78 207.284 84.7157 214 93 214H163C171.284 214 178 207.284 178 199V54C178 45.7157 171.284 39 163 39H93ZM73 54C73 42.9543 81.9543 34 93 34H163C174.046 34 183 42.9543 183 54V199C183 210.046 174.046 219 163 219H93C81.9543 219 73 210.046 73 199V54Z" fill="#0D0D0D"/>
<path d="M189 65.5H119C109.335 65.5 101.5 73.335 101.5 83V229C101.5 238.665 109.335 246.5 119 246.5H189C198.665 246.5 206.5 238.665 206.5 229V83C206.5 73.335 198.665 65.5 189 65.5Z" fill="#9CD9D3"/>
<path fill-rule="evenodd" clip-rule="evenodd" d="M119 68C110.716 68 104 74.7157 104 83V229C104 237.284 110.716 244 119 244H189C197.284 244 204 237.284 204 229V83C204 74.7157 197.284 68 189 68H119ZM99 83C99 71.9543 107.954 63 119 63H189C200.046 63 209 71.9543 209 83V229C209 240.046 200.046 249 189 249H119C107.954 249 99 240.046 99 229V83Z" fill="#0D0D0D"/>
<path d="M218 99.5H148C138.335 99.5 130.5 107.335 130.5 117V262C130.5 271.665 138.335 279.5 148 279.5H218C227.665 279.5 235.5 271.665 235.5 262V117C235.5 107.335 227.665 99.5 218 99.5Z" fill="#9CD9D3"/>
<path fill-rule="evenodd" clip-rule="evenodd" d="M148 102C139.716 102 133 108.716 133 117V262C133 270.284 139.716 277 148 277H218C226.284 277 233 270.284 233 262V117C233 108.716 226.284 102 218 102H148ZM128 117C128 105.954 136.954 97 148 97H218C229.046 97 238 105.954 238 117V262C238 273.046 229.046 282 218 282H148C136.954 282 128 273.046 128 262V117Z" fill="#0D0D0D"/>
</svg>
