<svg width="326" height="321" viewBox="0 0 326 321" fill="none" xmlns="http://www.w3.org/2000/svg">
<path d="M0 60C0 26.8629 26.8629 0 60 0H266C299.137 0 326 26.8629 326 60V261C326 294.137 299.137 321 266 321H60C26.8629 321 0 294.137 0 261V60Z" fill="#F2C53D"/>
<path fill-rule="evenodd" clip-rule="evenodd" d="M266 5H60C29.6243 5 5 29.6243 5 60V261C5 291.376 29.6243 316 60 316H266C296.376 316 321 291.376 321 261V60C321 29.6243 296.376 5 266 5ZM60 0C26.8629 0 0 26.8629 0 60V261C0 294.137 26.8629 321 60 321H266C299.137 321 326 294.137 326 261V60C326 26.8629 299.137 0 266 0H60Z" fill="#0D0D0D"/>
<path d="M120.954 116.302C144.296 93.3735 181.704 93.3735 205.046 116.302L303.431 212.947C341.749 250.587 315.097 315.75 261.385 315.75H64.6156C10.9027 315.75 -15.7488 250.587 22.5692 212.947L120.954 116.302Z" fill="#F2A03D"/>
<path d="M79.8921 187.456C62.7026 177.421 62.7026 152.582 79.8921 142.548L213.443 64.5852C230.777 54.4667 252.551 66.9689 252.551 87.0392L252.551 242.965C252.551 263.035 230.777 275.537 213.443 265.418L79.8921 187.456Z" fill="#9CD9D3"/>
<path fill-rule="evenodd" clip-rule="evenodd" d="M215.964 68.9033L82.4129 146.866C68.529 154.971 68.529 175.033 82.4129 183.138L215.964 261.1C229.964 269.273 247.551 259.175 247.551 242.965L247.551 87.0392C247.551 70.8286 229.964 60.7307 215.964 68.9033ZM79.8921 142.548C62.7026 152.582 62.7026 177.421 79.8921 187.456L213.443 265.418C230.777 275.537 252.551 263.035 252.551 242.965L252.551 87.0392C252.551 66.9689 230.777 54.4667 213.443 64.5852L79.8921 142.548Z" fill="#0D0D0D"/>
</svg>
