<svg width="326" height="321" viewBox="0 0 326 321" fill="none" xmlns="http://www.w3.org/2000/svg">
<path d="M266 2.5H60C28.2436 2.5 2.5 28.2436 2.5 60V261C2.5 292.756 28.2436 318.5 60 318.5H266C297.756 318.5 323.5 292.756 323.5 261V60C323.5 28.2436 297.756 2.5 266 2.5Z" fill="#F2C53D"/>
<path fill-rule="evenodd" clip-rule="evenodd" d="M60 5C29.6243 5 5 29.6243 5 60V261C5 291.376 29.6243 316 60 316H266C296.376 316 321 291.376 321 261V60C321 29.6243 296.376 5 266 5H60ZM0 60C0 26.8629 26.8629 0 60 0H266C299.137 0 326 26.8629 326 60V261C326 294.137 299.137 321 266 321H60C26.8629 321 0 294.137 0 261V60Z" fill="#0D0D0D"/>
<path d="M120.954 116.302C144.296 93.3735 181.704 93.3735 205.046 116.302L303.431 212.947C341.749 250.587 315.097 315.75 261.385 315.75H64.616C10.903 315.75 -15.749 250.587 22.569 212.947L120.954 116.302Z" fill="#F2A03D"/>
<path d="M192 52.5H62C52.335 52.5 44.5 60.335 44.5 70V80C44.5 89.665 52.335 97.5 62 97.5H192C201.665 97.5 209.5 89.665 209.5 80V70C209.5 60.335 201.665 52.5 192 52.5Z" fill="#9CD9D3"/>
<path fill-rule="evenodd" clip-rule="evenodd" d="M62 55C53.7157 55 47 61.7157 47 70V80C47 88.2843 53.7157 95 62 95H192C200.284 95 207 88.2843 207 80V70C207 61.7157 200.284 55 192 55H62ZM42 70C42 58.9543 50.9543 50 62 50H192C203.046 50 212 58.9543 212 70V80C212 91.0457 203.046 100 192 100H62C50.9543 100 42 91.0457 42 80V70Z" fill="#0D0D0D"/>
<path d="M192 224.5H62C52.335 224.5 44.5 232.335 44.5 242V252C44.5 261.665 52.335 269.5 62 269.5H192C201.665 269.5 209.5 261.665 209.5 252V242C209.5 232.335 201.665 224.5 192 224.5Z" fill="#9CD9D3"/>
<path fill-rule="evenodd" clip-rule="evenodd" d="M62 227C53.7157 227 47 233.716 47 242V252C47 260.284 53.7157 267 62 267H192C200.284 267 207 260.284 207 252V242C207 233.716 200.284 227 192 227H62ZM42 242C42 230.954 50.9543 222 62 222H192C203.046 222 212 230.954 212 242V252C212 263.046 203.046 272 192 272H62C50.9543 272 42 263.046 42 252V242Z" fill="#0D0D0D"/>
<path d="M288 138.5H158C148.335 138.5 140.5 146.335 140.5 156V166C140.5 175.665 148.335 183.5 158 183.5H288C297.665 183.5 305.5 175.665 305.5 166V156C305.5 146.335 297.665 138.5 288 138.5Z" fill="#F23838"/>
<path fill-rule="evenodd" clip-rule="evenodd" d="M158 141C149.716 141 143 147.716 143 156V166C143 174.284 149.716 181 158 181H288C296.284 181 303 174.284 303 166V156C303 147.716 296.284 141 288 141H158ZM138 156C138 144.954 146.954 136 158 136H288C299.046 136 308 144.954 308 156V166C308 177.046 299.046 186 288 186H158C146.954 186 138 177.046 138 166V156Z" fill="#0D0D0D"/>
</svg>
