<svg width="326" height="321" viewBox="0 0 326 321" fill="none" xmlns="http://www.w3.org/2000/svg">
<path d="M0 60C0 26.8629 26.8629 0 60 0H266C299.137 0 326 26.8629 326 60V261C326 294.137 299.137 321 266 321H60C26.8629 321 0 294.137 0 261V60Z" fill="#F2C53D"/>
<path fill-rule="evenodd" clip-rule="evenodd" d="M266 5H60C29.6243 5 5 29.6243 5 60V261C5 291.376 29.6243 316 60 316H266C296.376 316 321 291.376 321 261V60C321 29.6243 296.376 5 266 5ZM60 0C26.8629 0 0 26.8629 0 60V261C0 294.137 26.8629 321 60 321H266C299.137 321 326 294.137 326 261V60C326 26.8629 299.137 0 266 0H60Z" fill="#0D0D0D"/>
<path d="M120.954 116.302C144.296 93.3735 181.704 93.3735 205.046 116.302L303.431 212.947C341.749 250.587 315.097 315.75 261.385 315.75H64.6156C10.9027 315.75 -15.7488 250.587 22.5692 212.947L120.954 116.302Z" fill="#F2A03D"/>
<path d="M51 236C51 219.431 64.4315 206 81 206H244C260.569 206 274 219.431 274 236V236C274 252.569 260.569 266 244 266H81C64.4315 266 51 252.569 51 236V236Z" fill="#F23838"/>
<path fill-rule="evenodd" clip-rule="evenodd" d="M244 211H81C67.1929 211 56 222.193 56 236C56 249.807 67.1929 261 81 261H244C257.807 261 269 249.807 269 236C269 222.193 257.807 211 244 211ZM81 206C64.4315 206 51 219.431 51 236C51 252.569 64.4315 266 81 266H244C260.569 266 274 252.569 274 236C274 219.431 260.569 206 244 206H81Z" fill="#0D0D0D"/>
<path d="M118.5 115L160.502 195.25H76.4978L118.5 115Z" fill="#F23838"/>
<path fill-rule="evenodd" clip-rule="evenodd" d="M118.5 115L76.4978 195.25H160.502L118.5 115ZM118.5 125.782L84.7582 190.25H152.242L118.5 125.782Z" fill="#0D0D0D"/>
<path d="M223 149L246.383 194H199.617L223 149Z" fill="#F23838"/>
<path fill-rule="evenodd" clip-rule="evenodd" d="M223 149L199.617 194H246.383L223 149ZM223 159.844L207.85 189H238.15L223 159.844Z" fill="#0D0D0D"/>
<path d="M177.5 25L214 95L177.5 165L141 95L177.5 25Z" fill="#F23838"/>
<path fill-rule="evenodd" clip-rule="evenodd" d="M177.5 25L141 95L177.5 165L214 95L177.5 25ZM177.5 35.8143L146.639 95L177.5 154.186L208.361 95L177.5 35.8143Z" fill="#0D0D0D"/>
</svg>
