<svg width="500" height="800" viewBox="0 0 500 800" fill="none" xmlns="http://www.w3.org/2000/svg">
<rect x="2.5" y="2.5" width="495" height="795" rx="57.5" fill="#9CD9D3" stroke="#0D0D0D" stroke-width="5"/>
<path d="M250 35.8442H83.7423C56.1281 35.8442 33.7423 58.2301 33.7423 85.8443V382.262" stroke="#0D0D0D" stroke-width="5"/>
<path d="M248.466 761.171H414.724C442.338 761.171 464.724 738.786 464.724 711.171V414.754" stroke="#0D0D0D" stroke-width="5"/>
<path d="M128 100L140.124 141.459H179.357L147.617 167.082L159.74 208.541L128 182.918L96.2596 208.541L108.383 167.082L76.6429 141.459H115.876L128 100Z" fill="#0D0D0D"/>
<path d="M248 100L260.124 141.459H299.357L267.617 167.082L279.74 208.541L248 182.918L216.26 208.541L228.383 167.082L196.643 141.459H235.876L248 100Z" fill="#0D0D0D"/>
<path d="M368 100L380.124 141.459H419.357L387.617 167.082L399.74 208.541L368 182.918L336.26 208.541L348.383 167.082L316.643 141.459H355.876L368 100Z" fill="#0D0D0D"/>
<path d="M130 580L142.124 621.459H181.357L149.617 647.082L161.74 688.541L130 662.918L98.2596 688.541L110.383 647.082L78.6429 621.459H117.876L130 580Z" fill="#0D0D0D"/>
<path d="M250 580L262.124 621.459H301.357L269.617 647.082L281.74 688.541L250 662.918L218.26 688.541L230.383 647.082L198.643 621.459H237.876L250 580Z" fill="#0D0D0D"/>
<path d="M370 580L382.124 621.459H421.357L389.617 647.082L401.74 688.541L370 662.918L338.26 688.541L350.383 647.082L318.643 621.459H357.876L370 580Z" fill="#0D0D0D"/>
<path d="M130 460L142.124 501.459H181.357L149.617 527.082L161.74 568.541L130 542.918L98.2596 568.541L110.383 527.082L78.6429 501.459H117.876L130 460Z" fill="#0D0D0D"/>
<path d="M250 460L262.124 501.459H301.357L269.617 527.082L281.74 568.541L250 542.918L218.26 568.541L230.383 527.082L198.643 501.459H237.876L250 460Z" fill="#0D0D0D"/>
<path d="M370 460L382.124 501.459H421.357L389.617 527.082L401.74 568.541L370 542.918L338.26 568.541L350.383 527.082L318.643 501.459H357.876L370 460Z" fill="#0D0D0D"/>
<path d="M130 340L142.124 381.459H181.357L149.617 407.082L161.74 448.541L130 422.918L98.2596 448.541L110.383 407.082L78.6429 381.459H117.876L130 340Z" fill="#0D0D0D"/>
<path d="M250 340L262.124 381.459H301.357L269.617 407.082L281.74 448.541L250 422.918L218.26 448.541L230.383 407.082L198.643 381.459H237.876L250 340Z" fill="#0D0D0D"/>
<path d="M370 340L382.124 381.459H421.357L389.617 407.082L401.74 448.541L370 422.918L338.26 448.541L350.383 407.082L318.643 381.459H357.876L370 340Z" fill="#0D0D0D"/>
<path d="M130 220L142.124 261.459H181.357L149.617 287.082L161.74 328.541L130 302.918L98.2596 328.541L110.383 287.082L78.6429 261.459H117.876L130 220Z" fill="#0D0D0D"/>
<path d="M250 220L262.124 261.459H301.357L269.617 287.082L281.74 328.541L250 302.918L218.26 328.541L230.383 287.082L198.643 261.459H237.876L250 220Z" fill="#0D0D0D"/>
<path d="M370 220L382.124 261.459H421.357L389.617 287.082L401.74 328.541L370 302.918L338.26 328.541L350.383 287.082L318.643 261.459H357.876L370 220Z" fill="#0D0D0D"/>
</svg>
